<svg id="Layer_1" data-name="Layer 1" xmlns="http://www.w3.org/2000/svg" viewBox="0 0 357.84 279.32"><defs><style>.cls-1{fill:#231f20;}</style></defs><title>Untitled-1</title><path class="cls-1" d="M209.5,286.71c35.78-14.45,71.38-29.58,107.66-42.76,35.46-12.88,72.09-23.29,109.92-25.47,4.89-.28,4.92-7.92,0-7.64-37.9,2.19-74.62,12.28-110.2,25.1-36.89,13.31-73,28.72-109.41,43.41-4.5,1.81-2.53,9.21,2,7.36Z" transform="translate(-72.92 -210.83)"/><path class="cls-1" d="M321.59,238.21c-10,11-16.6,24.13-21.84,37.9a461.59,461.59,0,0,0-15.12,49,559.91,559.91,0,0,0-17.2,161.43l7.51-1c-6.13-15.36-12.48-30.85-22.87-43.89C241,427.75,225.62,419,210.13,411c-16.33-8.44-32.31-15.89-51.12-15.3a133.37,133.37,0,0,0-47.09,10.33c-15.65,6.6-29.54,16.83-38.42,31.52-2.55,4.21,4,8.06,6.6,3.85,15-24.8,45.87-35.34,73.4-37.73a71,71,0,0,1,25.2,1.84c8.33,2.29,16.07,6.18,23.73,10.11,13.95,7.15,28.41,14.36,39.4,25.81,12.34,12.84,19.24,29.77,25.74,46.06,1.48,3.7,7.68,3.64,7.5-1A553.62,553.62,0,0,1,303.5,288.31c5.42-16,12-32,23.49-44.7,3.31-3.63-2.08-9.05-5.4-5.4Z" transform="translate(-72.92 -210.83)"/></svg>